<svg width="16" height="16" viewBox="0 0 16 16" fill="none" xmlns="http://www.w3.org/2000/svg">
<path d="M2.66667 11C3.40305 11 4 10.4031 4 9.66669C4 8.93031 3.40305 8.33335 2.66667 8.33335C1.93029 8.33335 1.33333 8.93031 1.33333 9.66669C1.33333 10.4031 1.93029 11 2.66667 11Z" fill="#3F5F90"/>
<path d="M0.813333 12.0534C0.32 12.2667 0 12.7467 0 13.2867V14.3334H3V13.26C3 12.7067 3.15333 12.1867 3.42 11.7334C3.17333 11.6934 2.92667 11.6667 2.66667 11.6667C2.00667 11.6667 1.38 11.8067 0.813333 12.0534Z" fill="#3F5F90"/>
<path d="M13.3333 11C14.0697 11 14.6667 10.4031 14.6667 9.66669C14.6667 8.93031 14.0697 8.33335 13.3333 8.33335C12.597 8.33335 12 8.93031 12 9.66669C12 10.4031 12.597 11 13.3333 11Z" fill="#3F5F90"/>
<path d="M15.1867 12.0534C14.62 11.8067 13.9933 11.6667 13.3333 11.6667C13.0733 11.6667 12.8267 11.6934 12.58 11.7334C12.8467 12.1867 13 12.7067 13 13.26V14.3334H16V13.2867C16 12.7467 15.68 12.2667 15.1867 12.0534Z" fill="#3F5F90"/>
<path d="M10.8267 11.4334C10.0467 11.0867 9.08667 10.8334 8 10.8334C6.91333 10.8334 5.95333 11.0934 5.17333 11.4334C4.45333 11.7534 4 12.4734 4 13.26V14.3334H12V13.26C12 12.4734 11.5467 11.7534 10.8267 11.4334ZM5.38 13C5.44 12.8467 5.56 12.72 5.70667 12.6534C6.44 12.3267 7.21333 12.1667 7.99333 12.1667C8.78 12.1667 9.54667 12.3334 10.28 12.6534C10.4333 12.72 10.5467 12.8467 10.6067 13H5.38Z" fill="#3F5F90"/>
<path d="M6 8.33335C6 9.44002 6.89333 10.3334 8 10.3334C9.10667 10.3334 10 9.44002 10 8.33335C10 7.22669 9.10667 6.33335 8 6.33335C6.89333 6.33335 6 7.22669 6 8.33335ZM8.66667 8.33335C8.66667 8.70002 8.36667 9.00002 8 9.00002C7.63333 9.00002 7.33333 8.70002 7.33333 8.33335C7.33333 7.96669 7.63333 7.66669 8 7.66669C8.36667 7.66669 8.66667 7.96669 8.66667 8.33335Z" fill="#3F5F90"/>
<path d="M1.65333 7.57335C1.44667 7.06669 1.33333 6.57335 1.33333 6.06669C1.33333 4.34669 2.68 3.00002 4.4 3.00002C6.18667 3.00002 6.94667 4.16002 8 5.39335C9.04667 4.17335 9.8 3.00002 11.6 3.00002C13.32 3.00002 14.6667 4.34669 14.6667 6.06669C14.6667 6.57335 14.5533 7.06669 14.3467 7.57335C14.78 7.78002 15.1333 8.12002 15.3667 8.53335C15.7667 7.73335 16 6.92002 16 6.06669C16 3.60002 14.0667 1.66669 11.6 1.66669C10.2067 1.66669 8.87333 2.31335 8 3.34002C7.12667 2.31335 5.79333 1.66669 4.4 1.66669C1.93333 1.66669 0 3.60002 0 6.06669C0 6.92002 0.233333 7.73335 0.64 8.53335C0.873333 8.12002 1.22667 7.78002 1.65333 7.57335Z" fill="#3F5F90"/>
</svg>
